<svg xmlns="http://www.w3.org/2000/svg" style="display:none">
  <!-- Iconoir sprite (stroke=currentColor, fill=none, round caps/joins) -->
  <symbol id="dashboard" viewBox="0 0 24 24" stroke="currentColor" stroke-width="1.5" fill="none" stroke-linecap="round" stroke-linejoin="round">
    <path d="M15 15.8C15 14.0327 12 11 12 11C12 11 9 14.0327 9 15.8C9 17.5673 10.3431 19 12 19C13.6569 19 15 17.5673 15 15.8Z" stroke="currentColor" stroke-width="1.5" />
    <path d="M12 4L12 8" stroke="currentColor" stroke-linecap="round" stroke-linejoin="round" />
    <path d="M3.5 7.5L6.5 10.5" stroke="currentColor" stroke-linecap="round" stroke-linejoin="round" />
    <path d="M17.5 10.5L20.5 7.5" stroke="currentColor" stroke-linecap="round" stroke-linejoin="round" />
    <path d="M2 17H6" stroke="currentColor" stroke-linecap="round" stroke-linejoin="round" />
    <path d="M18 17H22" stroke="currentColor" stroke-linecap="round" stroke-linejoin="round" />
  </symbol>
  <symbol id="profile-circle" viewBox="0 0 24 24" stroke="currentColor" stroke-width="1.5" fill="none" stroke-linecap="round" stroke-linejoin="round">
    <path d="M12 2C6.47715 2 2 6.47715 2 12C2 17.5228 6.47715 22 12 22C17.5228 22 22 17.5228 22 12C22 6.47715 17.5228 2 12 2Z" stroke="currentColor" stroke-linecap="round" stroke-linejoin="round" />
    <path d="M4.271 18.3457C4.271 18.3457 6.50002 15.5 12 15.5C17.5 15.5 19.7291 18.3457 19.7291 18.3457" stroke="currentColor" stroke-linecap="round" stroke-linejoin="round" />
    <path d="M12 12C13.6569 12 15 10.6569 15 9C15 7.34315 13.6569 6 12 6C10.3431 6 9 7.34315 9 9C9 10.6569 10.3431 12 12 12Z" stroke="currentColor" stroke-linecap="round" stroke-linejoin="round" />
  </symbol>
  <symbol id="list" viewBox="0 0 24 24" stroke="currentColor" stroke-width="1.5" fill="none" stroke-linecap="round" stroke-linejoin="round">
    <path d="M8 6L20 6" stroke="currentColor" stroke-linecap="round" stroke-linejoin="round" />
    <path d="M4 6.01L4.01 5.99889" stroke="currentColor" stroke-linecap="round" stroke-linejoin="round" />
    <path d="M4 12.01L4.01 11.9989" stroke="currentColor" stroke-linecap="round" stroke-linejoin="round" />
    <path d="M4 18.01L4.01 17.9989" stroke="currentColor" stroke-linecap="round" stroke-linejoin="round" />
    <path d="M8 12L20 12" stroke="currentColor" stroke-linecap="round" stroke-linejoin="round" />
    <path d="M8 18L20 18" stroke="currentColor" stroke-linecap="round" stroke-linejoin="round" />
  </symbol>
  <symbol id="plus" viewBox="0 0 24 24" stroke="currentColor" stroke-width="1.5" fill="none" stroke-linecap="round" stroke-linejoin="round">
    <path d="M6 12H12M18 12H12M12 12V6M12 12V18" stroke="currentColor" stroke-linecap="round" stroke-linejoin="round" />
  </symbol>
  <symbol id="dots-grid-3x3" viewBox="0 0 24 24" stroke="currentColor" stroke-width="1.5" fill="none" stroke-linecap="round" stroke-linejoin="round">
    <path d="M5.5 6C5.77614 6 6 5.77614 6 5.5C6 5.22386 5.77614 5 5.5 5C5.22386 5 5 5.22386 5 5.5C5 5.77614 5.22386 6 5.5 6Z" fill="currentColor" stroke="currentColor" stroke-linecap="round" stroke-linejoin="round" />
    <path d="M5.5 12.5C5.77614 12.5 6 12.2761 6 12C6 11.7239 5.77614 11.5 5.5 11.5C5.22386 11.5 5 11.7239 5 12C5 12.2761 5.22386 12.5 5.5 12.5Z" fill="currentColor" stroke="currentColor" stroke-linecap="round" stroke-linejoin="round" />
    <path d="M5.5 19C5.77614 19 6 18.7761 6 18.5C6 18.2239 5.77614 18 5.5 18C5.22386 18 5 18.2239 5 18.5C5 18.7761 5.22386 19 5.5 19Z" fill="currentColor" stroke="currentColor" stroke-linecap="round" stroke-linejoin="round" />
    <path d="M12 6C12.2761 6 12.5 5.77614 12.5 5.5C12.5 5.22386 12.2761 5 12 5C11.7239 5 11.5 5.22386 11.5 5.5C11.5 5.77614 11.7239 6 12 6Z" fill="currentColor" stroke="currentColor" stroke-linecap="round" stroke-linejoin="round" />
    <path d="M12 12.5C12.2761 12.5 12.5 12.2761 12.5 12C12.5 11.7239 12.2761 11.5 12 11.5C11.7239 11.5 11.5 11.7239 11.5 12C11.5 12.2761 11.7239 12.5 12 12.5Z" fill="currentColor" stroke="currentColor" stroke-linecap="round" stroke-linejoin="round" />
    <path d="M12 19C12.2761 19 12.5 18.7761 12.5 18.5C12.5 18.2239 12.2761 18 12 18C11.7239 18 11.5 18.2239 11.5 18.5C11.5 18.7761 11.7239 19 12 19Z" fill="currentColor" stroke="currentColor" stroke-linecap="round" stroke-linejoin="round" />
    <path d="M18.5 6C18.7761 6 19 5.77614 19 5.5C19 5.22386 18.7761 5 18.5 5C18.2239 5 18 5.22386 18 5.5C18 5.77614 18.2239 6 18.5 6Z" fill="currentColor" stroke="currentColor" stroke-linecap="round" stroke-linejoin="round" />
    <path d="M18.5 12.5C18.7761 12.5 19 12.2761 19 12C19 11.7239 18.7761 11.5 18.5 11.5C18.2239 11.5 18 11.7239 18 12C18 12.2761 18.2239 12.5 18.5 12.5Z" fill="currentColor" stroke="currentColor" stroke-linecap="round" stroke-linejoin="round" />
    <path d="M18.5 19C18.7761 19 19 18.7761 19 18.5C19 18.2239 18.7761 18 18.5 18C18.2239 18 18 18.2239 18 18.5C18 18.7761 18.2239 19 18.5 19Z" fill="currentColor" stroke="currentColor" stroke-linecap="round" stroke-linejoin="round" />
  </symbol>
  <symbol id="clipboard-check" viewBox="0 0 24 24" stroke="currentColor" stroke-width="1.5" fill="none" stroke-linecap="round" stroke-linejoin="round">
    <path d="M8.5 4H6C4.89543 4 4 4.89543 4 6V20C4 21.1046 4.89543 22 6 22H12" stroke="currentColor" stroke-linecap="round" />
    <path d="M15.5 4H18C19.1046 4 20 4.89543 20 6V15" stroke="currentColor" stroke-linecap="round" />
    <path d="M8 6.4V4.5C8 4.22386 8.22386 4 8.5 4C8.77614 4 9.00422 3.77604 9.05152 3.50398C9.19968 2.65171 9.77399 1 12 1C14.226 1 14.8003 2.65171 14.9485 3.50398C14.9958 3.77604 15.2239 4 15.5 4C15.7761 4 16 4.22386 16 4.5V6.4C16 6.73137 15.7314 7 15.4 7H8.6C8.26863 7 8 6.73137 8 6.4Z" stroke="currentColor" stroke-linecap="round" />
    <path d="M15.5 20.5L17.5 22.5L22.5 17.5" stroke="currentColor" stroke-linecap="round" stroke-linejoin="round" />
  </symbol>
  <symbol id="palette" viewBox="0 0 24 24" stroke="currentColor" stroke-width="1.5" fill="none" stroke-linecap="round" stroke-linejoin="round">
    <path d="M20.5096 9.54C20.4243 9.77932 20.2918 9.99909 20.12 10.1863C19.9483 10.3735 19.7407 10.5244 19.5096 10.63C18.2796 11.1806 17.2346 12.0745 16.5002 13.2045C15.7659 14.3345 15.3733 15.6524 15.3696 17C15.3711 17.4701 15.418 17.9389 15.5096 18.4C15.5707 18.6818 15.5747 18.973 15.5215 19.2564C15.4682 19.5397 15.3588 19.8096 15.1996 20.05C15.0649 20.2604 14.8877 20.4403 14.6793 20.5781C14.4709 20.7158 14.2359 20.8085 13.9896 20.85C13.4554 20.9504 12.9131 21.0006 12.3696 21C11.1638 21.0006 9.97011 20.7588 8.85952 20.2891C7.74893 19.8194 6.74405 19.1314 5.90455 18.2657C5.06506 17.4001 4.40807 16.3747 3.97261 15.2502C3.53714 14.1257 3.33208 12.9252 3.36959 11.72C3.4472 9.47279 4.3586 7.33495 5.92622 5.72296C7.49385 4.11097 9.60542 3.14028 11.8496 3H12.3596C14.0353 3.00042 15.6777 3.46869 17.1017 4.35207C18.5257 5.23544 19.6748 6.49885 20.4196 8C20.6488 8.47498 20.6812 9.02129 20.5096 9.52V9.54Z" stroke="currentColor" stroke-width="1.5" />
    <path d="M8 16.01L8.01 15.9989" stroke="currentColor" stroke-linecap="round" stroke-linejoin="round" />
    <path d="M6 12.01L6.01 11.9989" stroke="currentColor" stroke-linecap="round" stroke-linejoin="round" />
    <path d="M8 8.01L8.01 7.99889" stroke="currentColor" stroke-linecap="round" stroke-linejoin="round" />
    <path d="M12 6.01L12.01 5.99889" stroke="currentColor" stroke-linecap="round" stroke-linejoin="round" />
    <path d="M16 8.01L16.01 7.99889" stroke="currentColor" stroke-linecap="round" stroke-linejoin="round" />
  </symbol>
  <symbol id="puzzle" viewBox="0 0 24 24" stroke="currentColor" stroke-width="1.5" fill="none" stroke-linecap="round" stroke-linejoin="round">
    <path d="M4 14V18.4C4 18.7314 4.26863 19 4.6 19H10" stroke="currentColor" stroke-linecap="round" stroke-linejoin="round" />
    <path d="M19 14V18.4C19 18.7314 18.7314 19 18.4 19H14" stroke="currentColor" stroke-linecap="round" stroke-linejoin="round" />
    <path d="M14 5H18.4C18.7314 5 19 5.26863 19 5.6V10" stroke="currentColor" stroke-linecap="round" stroke-linejoin="round" />
    <path d="M4 10V5.6C4 5.26863 4.26863 5 4.6 5H10" stroke="currentColor" stroke-linecap="round" stroke-linejoin="round" />
    <path d="M14 19V20C14 21.1046 13.1046 22 12 22C10.8954 22 10 21.1046 10 20V19" stroke="currentColor" stroke-linecap="round" stroke-linejoin="round" />
    <path d="M4 10H5C6.10457 10 7 10.8954 7 12C7 13.1046 6.10457 14 5 14H4" stroke="currentColor" stroke-linecap="round" stroke-linejoin="round" />
    <path d="M19 10H20C21.1046 10 22 10.8954 22 12C22 13.1046 21.1046 14 20 14H19" stroke="currentColor" stroke-linecap="round" stroke-linejoin="round" />
    <path d="M14 5V4C14 2.89543 13.1046 2 12 2C10.8954 2 10 2.89543 10 4V5" stroke="currentColor" stroke-linecap="round" stroke-linejoin="round" />
  </symbol>
  <symbol id="menu" viewBox="0 0 24 24" stroke="currentColor" stroke-width="1.5" fill="none" stroke-linecap="round" stroke-linejoin="round">
    <path d="M3 5H21" stroke="currentColor" stroke-linecap="round" stroke-linejoin="round" />
    <path d="M3 12H21" stroke="currentColor" stroke-linecap="round" stroke-linejoin="round" />
    <path d="M3 19H21" stroke="currentColor" stroke-linecap="round" stroke-linejoin="round" />
  </symbol>
  <symbol id="layout-left" viewBox="0 0 24 24" stroke="currentColor" stroke-width="1.5" fill="none" stroke-linecap="round" stroke-linejoin="round">
    <path d="M3.6 3H20.4C20.7314 3 21 3.26863 21 3.6V20.4C21 20.7314 20.7314 21 20.4 21H3.6C3.26863 21 3 20.7314 3 20.4V3.6C3 3.26863 3.26863 3 3.6 3Z" stroke="currentColor" stroke-width="1.5" />
    <path d="M9.75 9.75V21" stroke="currentColor" stroke-width="1.5" />
    <path d="M3 9.75H21" stroke="currentColor" stroke-width="1.5" />
  </symbol>
  <symbol id="credit-card" viewBox="0 0 24 24" stroke="currentColor" stroke-width="1.5" fill="none" stroke-linecap="round" stroke-linejoin="round">
    <path d="M22 9V17C22 18.1046 21.1046 19 20 19H4C2.89543 19 2 18.1046 2 17V7C2 5.89543 2.89543 5 4 5H20C21.1046 5 22 5.89543 22 7V9ZM22 9H6" stroke="currentColor" stroke-linecap="round" stroke-linejoin="round" />
  </symbol>
  <symbol id="question-mark" viewBox="0 0 24 24" stroke="currentColor" stroke-width="1.5" fill="none" stroke-linecap="round" stroke-linejoin="round">
    <path d="M7.90039 8.07954C7.90039 3.30678 15.4004 3.30682 15.4004 8.07955C15.4004 11.4886 11.9913 10.8067 11.9913 14.8976" stroke="currentColor" stroke-linecap="round" stroke-linejoin="round" />
    <path d="M12 19.01L12.01 18.9989" stroke="currentColor" stroke-linecap="round" stroke-linejoin="round" />
  </symbol>
  <symbol id="grid-plus" viewBox="0 0 24 24" stroke="currentColor" stroke-width="1.5" fill="none" stroke-linecap="round" stroke-linejoin="round">
    <path d="M13.9922 17H16.9922M19.9922 17H16.9922M16.9922 17V14M16.9922 17V20" stroke="currentColor" stroke-linecap="round" stroke-linejoin="round" />
    <path d="M4 9.4V4.6C4 4.26863 4.26863 4 4.6 4H9.4C9.73137 4 10 4.26863 10 4.6V9.4C10 9.73137 9.73137 10 9.4 10H4.6C4.26863 10 4 9.73137 4 9.4Z" stroke="currentColor" stroke-width="1.5" />
    <path d="M4 19.4V14.6C4 14.2686 4.26863 14 4.6 14H9.4C9.73137 14 10 14.2686 10 14.6V19.4C10 19.7314 9.73137 20 9.4 20H4.6C4.26863 20 4 19.7314 4 19.4Z" stroke="currentColor" stroke-width="1.5" />
    <path d="M14 9.4V4.6C14 4.26863 14.2686 4 14.6 4H19.4C19.7314 4 20 4.26863 20 4.6V9.4C20 9.73137 19.7314 10 19.4 10H14.6C14.2686 10 14 9.73137 14 9.4Z" stroke="currentColor" stroke-width="1.5" />
  </symbol>
  <symbol id="activity" viewBox="0 0 24 24" stroke="currentColor" stroke-width="1.5" fill="none" stroke-linecap="round" stroke-linejoin="round">
    <path d="M3 12H6L9 3L15 21L18 12H21" stroke="currentColor" stroke-linecap="round" stroke-linejoin="round" />
  </symbol>
  <symbol id="magic-wand" viewBox="0 0 24 24" stroke="currentColor" stroke-width="1.5" fill="none" stroke-linecap="round" stroke-linejoin="round">
    <path d="M3 21L13 11M18 6L15.5 8.5" stroke="currentColor" stroke-linecap="round" stroke-linejoin="round" />
    <path d="M9.5 2L10.4453 4.55468L13 5.5L10.4453 6.44532L9.5 9L8.55468 6.44532L6 5.5L8.55468 4.55468L9.5 2Z" stroke="currentColor" stroke-linejoin="round" />
    <path d="M19 10L19.5402 11.4598L21 12L19.5402 12.5402L19 14L18.4598 12.5402L17 12L18.4598 11.4598L19 10Z" stroke="currentColor" stroke-linejoin="round" />
  </symbol>
  <symbol id="filter" viewBox="0 0 24 24" stroke="currentColor" stroke-width="1.5" fill="none" stroke-linecap="round" stroke-linejoin="round">
    <path d="M3.99961 3H19.9997C20.552 3 20.9997 3.44764 20.9997 3.99987L20.9999 5.58569C21 5.85097 20.8946 6.10538 20.707 6.29295L14.2925 12.7071C14.105 12.8946 13.9996 13.149 13.9996 13.4142L13.9996 19.7192C13.9996 20.3698 13.3882 20.8472 12.7571 20.6894L10.7571 20.1894C10.3119 20.0781 9.99961 19.6781 9.99961 19.2192L9.99961 13.4142C9.99961 13.149 9.89425 12.8946 9.70672 12.7071L3.2925 6.29289C3.10496 6.10536 2.99961 5.851 2.99961 5.58579V4C2.99961 3.44772 3.44732 3 3.99961 3Z" stroke="currentColor" stroke-linecap="round" stroke-linejoin="round" />
  </symbol>
  <symbol id="bell" viewBox="0 0 24 24" stroke="currentColor" stroke-width="1.5" fill="none" stroke-linecap="round" stroke-linejoin="round">
    <path d="M18 8.4C18 6.70261 17.3679 5.07475 16.2426 3.87452C15.1174 2.67428 13.5913 2 12 2C10.4087 2 8.88258 2.67428 7.75736 3.87452C6.63214 5.07475 6 6.70261 6 8.4C6 15.8667 3 18 3 18H21C21 18 18 15.8667 18 8.4Z" stroke="currentColor" stroke-linecap="round" stroke-linejoin="round" />
    <path d="M13.73 21C13.5542 21.3031 13.3019 21.5547 12.9982 21.7295C12.6946 21.9044 12.3504 21.9965 12 21.9965C11.6496 21.9965 11.3054 21.9044 11.0018 21.7295C10.6982 21.5547 10.4458 21.3031 10.27 21" stroke="currentColor" stroke-linecap="round" stroke-linejoin="round" />
  </symbol>
  <symbol id="search" viewBox="0 0 24 24" stroke="currentColor" stroke-width="1.5" fill="none" stroke-linecap="round" stroke-linejoin="round">
    <path d="M17 17L21 21" stroke="currentColor" stroke-linecap="round" stroke-linejoin="round" />
    <path d="M3 11C3 15.4183 6.58172 19 11 19C13.213 19 15.2161 18.1015 16.6644 16.6493C18.1077 15.2022 19 13.2053 19 11C19 6.58172 15.4183 3 11 3C6.58172 3 3 6.58172 3 11Z" stroke="currentColor" stroke-linecap="round" stroke-linejoin="round" />
  </symbol>
</svg>
