<svg xmlns="http://www.w3.org/2000/svg" style="display:none">
  <!-- Icons styled like Iconoir (stroke=currentColor, fill=none, round caps/joins) -->
  <symbol id="dashboard" viewBox="0 0 24 24" stroke="currentColor" stroke-width="1.5" fill="none" stroke-linecap="round" stroke-linejoin="round">
    <rect x="3" y="3" width="8" height="8" rx="1"/><rect x="13" y="3" width="8" height="5" rx="1"/>
    <rect x="13" y="10" width="8" height="11" rx="1"/><rect x="3" y="13" width="8" height="8" rx="1"/>
  </symbol>
  <symbol id="users" viewBox="0 0 24 24" stroke="currentColor" stroke-width="1.5" fill="none" stroke-linecap="round" stroke-linejoin="round">
    <circle cx="8" cy="8" r="3"/><path d="M13 21v-1a5 5 0 0 0-5-5H7a5 5 0 0 0-5 5v1"/>
    <circle cx="18" cy="9" r="2.5"/><path d="M22 21v-1a4 4 0 0 0-3-3.87"/>
  </symbol>
  <symbol id="clipboard_text" viewBox="0 0 24 24" stroke="currentColor" stroke-width="1.5" fill="none" stroke-linecap="round" stroke-linejoin="round">
    <rect x="6" y="4" width="12" height="16" rx="2"/><path d="M9 4h6v3H9z"/><path d="M9 10h6M9 14h6"/>
  </symbol>
  <symbol id="list" viewBox="0 0 24 24" stroke="currentColor" stroke-width="1.5" fill="none" stroke-linecap="round" stroke-linejoin="round">
    <path d="M8 6h13M8 12h13M8 18h13"/><circle cx="4" cy="6" r="1"/><circle cx="4" cy="12" r="1"/><circle cx="4" cy="18" r="1"/>
  </symbol>
  <symbol id="plus" viewBox="0 0 24 24" stroke="currentColor" stroke-width="1.5" fill="none" stroke-linecap="round" stroke-linejoin="round">
    <path d="M12 5v14M5 12h14"/>
  </symbol>
  <symbol id="filter" viewBox="0 0 24 24" stroke="currentColor" stroke-width="1.5" fill="none" stroke-linecap="round" stroke-linejoin="round">
    <path d="M3 6h18"/><path d="M6 12h12"/><path d="M10 18h4"/>
  </symbol>
  <symbol id="palette" viewBox="0 0 24 24" stroke="currentColor" stroke-width="1.5" fill="none" stroke-linecap="round" stroke-linejoin="round">
    <path d="M12 22a9.5 9.5 0 1 1 9.5-9.5c0 1.38-1.12 2.5-2.5 2.5H17a2 2 0 0 0-2 2 2.5 2.5 0 0 1-3 2.5z"/>
    <circle cx="7.5" cy="10.5" r="1"/><circle cx="10.5" cy="7.5" r="1"/>
    <circle cx="14.5" cy="7.5" r="1"/><circle cx="17.5" cy="10.5" r="1"/>
  </symbol>
  <symbol id="bell" viewBox="0 0 24 24" stroke="currentColor" stroke-width="1.5" fill="none" stroke-linecap="round" stroke-linejoin="round">
    <path d="M6 8a6 6 0 1 1 12 0v5l2 2H4l2-2V8"/><path d="M9 21h6"/>
  </symbol>
  <symbol id="search" viewBox="0 0 24 24" stroke="currentColor" stroke-width="1.5" fill="none" stroke-linecap="round" stroke-linejoin="round">
    <circle cx="11" cy="11" r="7"/><path d="M20 20l-3.5-3.5"/>
  </symbol>
</svg>
